<?xml version="1.0" encoding="UTF-8"?> <!-- Generator: Adobe Illustrator 17.0.0, SVG Export Plug-In . SVG Version: 6.00 Build 0) --> <svg xmlns="http://www.w3.org/2000/svg" xmlns:xlink="http://www.w3.org/1999/xlink" id="Layer_1" x="0px" y="0px" width="60px" height="60px" viewBox="0 0 60 60" xml:space="preserve"> <g> <g> <path fill="#311B14" d="M14.33,33.123l-0.385,1.322h-0.868l1.404-4.455c0.04-0.142,0.164-0.224,0.306-0.224h0.828 c0.144,0,0.264,0.082,0.306,0.224l1.404,4.455h-0.868l-0.385-1.322H14.33z M15.395,30.809c-0.033-0.128-0.082-0.272-0.102-0.401 h-0.184l-0.109,0.401l-0.469,1.614h1.329L15.395,30.809z"></path> <path fill="#311B14" d="M20.758,30.49v3.953h-0.855V30.49h-1.431v-0.724h3.729v0.724H20.758z"></path> <path fill="#311B14" d="M27.24,34.403c-0.618,0.053-1.371,0.053-2.062,0.053c-0.618,0-0.99-0.339-0.99-0.888v-2.93 c0-0.549,0.379-0.888,0.99-0.888c0.691,0,1.444,0,2.062,0.053l-0.033,0.651h-1.838c-0.244,0-0.332,0.102-0.332,0.392v0.822h1.911 v0.651h-1.911v1.043c0,0.292,0.089,0.392,0.332,0.392h1.838L27.24,34.403z"></path> <path fill="#311B14" d="M32.889,34.445h-0.855v-4.021h-0.726c-0.286,0-0.427,0.135-0.454,0.427 c-0.115,1.364-0.184,2.048-0.427,2.644c-0.286,0.704-0.74,1.016-1.404,0.963L28.954,33.8c0.319-0.075,0.549-0.204,0.671-0.529 c0.21-0.536,0.292-1.098,0.401-2.555c0.053-0.624,0.407-0.95,1.043-0.95h1.818L32.889,34.445L32.889,34.445z"></path> <path fill="#311B14" d="M36.957,31.555c1.22,0,1.628,0.365,1.628,1.486c0,1.14-0.427,1.457-1.486,1.457 c-0.822,0-1.233-0.007-1.776-0.053h-0.02v-4.679h0.848v1.789L36.957,31.555L36.957,31.555z M36.957,33.794 c0.644,0,0.773-0.148,0.773-0.766c0-0.596-0.115-0.815-0.773-0.815h-0.808v1.572L36.957,33.794z"></path> <path fill="#311B14" d="M43.744,34.403c-0.618,0.053-1.371,0.053-2.062,0.053c-0.618,0-0.99-0.339-0.99-0.888v-2.93 c0-0.549,0.379-0.888,0.99-0.888c0.691,0,1.444,0,2.062,0.053l-0.033,0.651h-1.838c-0.244,0-0.332,0.102-0.332,0.392v0.822h1.911 v0.651h-1.913v1.043c0,0.292,0.089,0.392,0.332,0.392h1.838L43.744,34.403z"></path> </g> <g> <path fill="#311B14" d="M30,60c-4.05,0-7.979-0.793-11.678-2.358c-3.573-1.511-6.781-3.674-9.536-6.429s-4.918-5.963-6.429-9.536 C0.793,37.978,0,34.05,0,30s0.793-7.979,2.358-11.678c1.511-3.573,3.674-6.781,6.429-9.536s5.963-4.918,9.535-6.429 C22.021,0.793,25.95,0,30,0s7.978,0.793,11.678,2.358c3.573,1.511,6.781,3.674,9.536,6.429s4.918,5.963,6.429,9.536 C59.207,22.021,60,25.95,60,30s-0.793,7.978-2.358,11.678c-1.511,3.573-3.674,6.781-6.429,9.536s-5.963,4.918-9.536,6.429 C37.978,59.207,34.05,60,30,60z M30,0.305C13.626,0.305,0.305,13.626,0.305,30S13.626,59.695,30,59.695S59.695,46.374,59.695,30 S46.374,0.305,30,0.305z"></path> </g> <g> <g> <g> <path fill="#311B14" d="M29.366,41.47c-0.096-0.332-0.186-0.658-0.267-0.969c-0.083-0.315-0.158-0.614-0.224-0.889 c-0.062-0.26-0.105-0.47-0.127-0.626c0.115-0.263,0.173-0.506,0.173-0.725c0-0.416-0.181-0.505-0.334-0.505 c0.004-0.031,0.005-0.064,0.005-0.098c0-0.118-0.028-0.235-0.084-0.349c-0.055-0.112-0.135-0.214-0.237-0.3 c-0.1-0.085-0.219-0.155-0.354-0.208c-0.136-0.053-0.29-0.08-0.459-0.08c-0.304,0-0.597,0.081-0.874,0.241 c-0.274,0.159-0.517,0.382-0.723,0.664c-0.135,0.186-0.252,0.398-0.352,0.63c-0.167,0.288-0.34,0.605-0.492,0.882 c-0.111,0.203-0.208,0.38-0.276,0.497c-0.188,0.323-0.396,0.592-0.563,0.807c-0.041,0.053-0.08,0.103-0.115,0.15 c-0.175,0.233-0.349,0.399-0.514,0.494c-0.331,0.19-0.654,0.165-0.917,0.066c-0.079-0.03-0.158-0.064-0.233-0.1 c0.434-0.132,0.795-0.386,1.075-0.759c0.318-0.424,0.479-0.958,0.479-1.588c0-0.259-0.028-0.507-0.084-0.737 c-0.056-0.231-0.142-0.437-0.256-0.611c-0.115-0.176-0.259-0.317-0.428-0.42c-0.171-0.104-0.368-0.157-0.582-0.157 c0,0,0,0-0.001,0c-0.184-0.007-0.383,0.028-0.591,0.105c-0.206,0.076-0.413,0.191-0.615,0.342 c-0.2,0.151-0.392,0.332-0.569,0.539c-0.127,0.148-0.242,0.307-0.342,0.475c-0.005-0.058-0.008-0.114-0.011-0.17l-0.021-0.378 c0.081-0.404,0.104-0.684,0.069-0.855c-0.041-0.199-0.125-0.3-0.252-0.3c-0.146,0-0.259,0.132-0.343,0.403 c-0.025,0.083-0.046,0.178-0.062,0.285c-0.034,0.1-0.075,0.219-0.12,0.351c-0.207,0.606-0.52,1.522-0.624,1.76 c-0.136,0.31-0.263,0.561-0.378,0.745c-0.111,0.179-0.218,0.305-0.319,0.376c-0.096,0.068-0.192,0.102-0.286,0.102 c-0.274,0-0.447-0.274-0.516-0.815c0.101-0.288,0.155-0.562,0.162-0.818c0.075-0.028,0.136-0.083,0.183-0.166 c0.054-0.096,0.08-0.251,0.08-0.473c0-0.214-0.026-0.416-0.079-0.604c-0.053-0.189-0.137-0.357-0.248-0.498 c-0.112-0.142-0.255-0.256-0.425-0.338s-0.372-0.123-0.601-0.123c-0.305,0-0.594,0.087-0.86,0.258 c-0.262,0.169-0.494,0.396-0.687,0.674c-0.126,0.18-0.233,0.38-0.325,0.595c-0.238,0.462-0.519,0.859-0.713,1.122 c-0.186,0.251-0.387,0.467-0.565,0.657c-0.042,0.044-0.081,0.087-0.119,0.128c-0.233,0.254-0.453,0.431-0.651,0.527 c-0.19,0.092-0.344,0.123-0.457,0.091c-0.105-0.029-0.167-0.103-0.195-0.232c-0.029-0.138,0.008-0.326,0.111-0.56 c0.064-0.151,0.149-0.312,0.252-0.478c0.107-0.173,0.208-0.348,0.304-0.523c0.108-0.205,0.217-0.423,0.324-0.646 c0.108-0.227,0.177-0.448,0.203-0.656c0.027-0.218-0.015-0.415-0.126-0.587c-0.114-0.175-0.333-0.299-0.668-0.378l-0.017-0.002 c-0.519,0-1,0.187-1.431,0.556c-0.428,0.366-0.779,0.961-1.045,1.771c-0.043,0.151-0.033,0.267,0.029,0.347 c0.062,0.079,0.157,0.118,0.282,0.118h0.047l0.019-0.043c0.158-0.357,0.312-0.672,0.457-0.935 c0.142-0.258,0.291-0.472,0.443-0.634c0.149-0.159,0.308-0.275,0.473-0.345c0.158-0.067,0.334-0.093,0.524-0.077 c0.087,0.072,0.128,0.168,0.125,0.295c-0.004,0.148-0.044,0.317-0.121,0.502c-0.079,0.191-0.178,0.389-0.296,0.589 c-0.12,0.204-0.234,0.393-0.344,0.567c-0.148,0.239-0.261,0.476-0.336,0.705c-0.076,0.235-0.098,0.452-0.063,0.644 c0.036,0.199,0.143,0.364,0.319,0.489c0.172,0.122,0.432,0.188,0.772,0.195l0.035,0.001c0.17,0,0.366-0.05,0.584-0.148 c0.229-0.104,0.466-0.273,0.704-0.502c0.228-0.22,0.472-0.466,0.729-0.864c0.037-0.057,0.075-0.116,0.112-0.177 c0.01,0.554,0.127,0.985,0.352,1.279c0.239,0.313,0.542,0.471,0.9,0.471c0.284,0,0.553-0.091,0.798-0.271 c0.204-0.149,0.385-0.333,0.541-0.545c0.193,0.434,0.507,0.654,0.936,0.654c0.179,0,0.354-0.045,0.521-0.134 c0.166-0.089,0.328-0.246,0.479-0.465c0.148-0.215,0.296-0.504,0.44-0.859c0.025-0.063,0.053-0.13,0.082-0.201 c0.101-0.245,0.221-0.534,0.326-0.855c0.017,0.144,0.035,0.292,0.056,0.443c-0.096,0.29-0.125,0.493-0.088,0.62 c0.035,0.122,0.11,0.206,0.218,0.247c0.049,0.328,0.102,0.666,0.158,1.012c0.057,0.357,0.111,0.722,0.158,1.085 c0.047,0.362,0.087,0.722,0.12,1.069c0.033,0.348,0.049,0.686,0.049,1.004c0,0.23-0.009,0.432-0.027,0.601 c-0.018,0.167-0.041,0.313-0.07,0.434c-0.028,0.118-0.062,0.221-0.099,0.303c-0.038,0.082-0.081,0.156-0.129,0.218l-0.028,0.038 l0.022,0.041c0.044,0.081,0.106,0.139,0.183,0.173c0.071,0.031,0.141,0.046,0.209,0.046c0.103,0,0.202-0.036,0.295-0.105 c0.089-0.068,0.168-0.173,0.235-0.314c0.065-0.137,0.114-0.313,0.148-0.523c0.033-0.207,0.05-0.464,0.05-0.762 c-0.008-0.518-0.061-1.094-0.16-1.711c-0.089-0.561-0.189-1.148-0.296-1.747c0.117,0.051,0.254,0.087,0.409,0.107 c0.154,0.116,0.295,0.223,0.422,0.32c0.133,0.102,0.262,0.19,0.385,0.262c0.125,0.073,0.257,0.131,0.393,0.173 c0.138,0.042,0.292,0.064,0.459,0.064c0.524,0,1.022-0.292,1.479-0.868c0.066-0.083,0.137-0.169,0.212-0.259 c0.17-0.205,0.356-0.432,0.535-0.688c0.035,0.391,0.144,0.707,0.331,0.942c0.232,0.292,0.542,0.44,0.921,0.44 c0.367,0,0.718-0.147,1.044-0.436c0.28-0.249,0.532-0.597,0.749-1.036c0.051,0.207,0.112,0.43,0.183,0.666 c0.094,0.313,0.186,0.654,0.272,1.01c0.074,0.352,0.143,0.702,0.207,1.04c0.065,0.34,0.107,0.683,0.125,1.022 c0.018,0.336,0.004,0.675-0.043,1.007c-0.037,0.265-0.122,0.652-0.313,0.995c-0.351,0.629-1.168,1.301-2.408,1.301 c-0.348,0-0.714-0.054-1.088-0.161c-0.627-0.179-1.215-0.602-1.428-1.029c-0.116-0.233-0.164-0.456-0.145-0.671 c0.042-0.181,0.026-0.303-0.049-0.374c-0.072-0.069-0.165-0.092-0.272-0.067c-0.096,0.023-0.188,0.08-0.274,0.172 c-0.088,0.093-0.138,0.205-0.149,0.335c-0.027,0.313,0.033,0.62,0.178,0.912c0.132,0.265,0.34,0.512,0.655,0.776 c0.555,0.465,1.471,0.743,2.449,0.743h0.001c1.068,0,2.001-0.324,2.56-0.89c0.378-0.382,0.657-0.811,0.829-1.273 c0.181-0.486,0.273-1.024,0.273-1.6c0-0.499-0.063-1.026-0.188-1.568C29.546,42.106,29.461,41.798,29.366,41.47z M27.306,37.437 c0.111,0,0.209,0.021,0.289,0.063c0.082,0.042,0.152,0.097,0.207,0.163c0.056,0.067,0.098,0.14,0.124,0.218 c0.026,0.08,0.04,0.153,0.04,0.219v0.041L28,38.162c0.05,0.031,0.106,0.046,0.168,0.047c-0.026,0.079-0.047,0.168-0.065,0.265 c-0.025,0.144-0.039,0.312-0.04,0.498c-0.22,0.611-0.474,1.064-0.755,1.345c-0.276,0.276-0.524,0.416-0.736,0.416 c-0.208,0-0.364-0.086-0.474-0.262c-0.116-0.185-0.175-0.455-0.175-0.801c0-0.327,0.041-0.632,0.123-0.905 c0.081-0.273,0.189-0.512,0.319-0.71c0.129-0.195,0.278-0.349,0.444-0.457C26.972,37.491,27.138,37.437,27.306,37.437z M22.854,40.004c-0.113,0.161-0.269,0.298-0.463,0.406c-0.187,0.104-0.417,0.162-0.684,0.171 c-0.132-0.102-0.259-0.192-0.378-0.269c-0.134-0.087-0.272-0.135-0.408-0.142h-0.004c-0.062,0-0.115,0.005-0.161,0.016 l-0.137-0.843c0.085-0.262,0.198-0.506,0.337-0.726c0.142-0.226,0.299-0.425,0.466-0.591c0.165-0.165,0.336-0.294,0.507-0.384 c0.167-0.088,0.323-0.133,0.464-0.133c0.245,0,0.432,0.11,0.573,0.338c0.145,0.235,0.219,0.561,0.219,0.968 c0,0.214-0.027,0.428-0.08,0.636C23.053,39.654,22.969,39.841,22.854,40.004z M16.912,39.743 c0.003,0.061,0.008,0.117,0.014,0.172c-0.132,0.237-0.29,0.437-0.47,0.593c-0.179,0.155-0.356,0.234-0.526,0.234 c-0.195,0-0.355-0.101-0.492-0.309c-0.141-0.215-0.213-0.53-0.213-0.936c0-0.26,0.036-0.518,0.107-0.765 c0.07-0.246,0.168-0.466,0.292-0.654c0.122-0.186,0.269-0.338,0.439-0.453c0.165-0.112,0.352-0.169,0.555-0.169 c0.23,0,0.41,0.067,0.551,0.205c0.124,0.122,0.204,0.297,0.241,0.523c-0.141,0.008-0.258,0.123-0.349,0.343 c-0.102,0.246-0.153,0.582-0.153,0.999C16.907,39.603,16.908,39.675,16.912,39.743z"></path> </g> <g> <path fill="#311B14" d="M50.654,32.129c-0.051-0.047-0.116-0.071-0.194-0.071c-0.012,0-0.024,0.001-0.022,0.002 c-0.127-0.014-0.316-0.019-0.566-0.016c-0.249,0.004-0.534,0.022-0.849,0.056c-0.313,0.034-0.65,0.083-1.001,0.146 c-0.352,0.065-0.694,0.152-1.016,0.259c-0.324,0.109-0.627,0.245-0.9,0.404c-0.278,0.162-0.496,0.357-0.647,0.581 c-0.183,0.274-0.268,0.56-0.253,0.849c0.015,0.283,0.089,0.576,0.22,0.871c0.129,0.291,0.298,0.588,0.504,0.883 c0.166,0.237,0.333,0.474,0.499,0.71c-0.005-0.001-0.01-0.002-0.015-0.003c-0.074-0.014-0.154-0.021-0.238-0.021 c-0.326,0-0.587,0.103-0.775,0.305c-0.182,0.195-0.29,0.45-0.323,0.758c-0.102,0.147-0.186,0.311-0.256,0.488 c-0.105,0.179-0.204,0.337-0.303,0.46c-0.132,0.164-0.291,0.315-0.538,0.538c-0.12,0.108-0.27,0.212-0.401,0.277 c-0.097,0.048-0.197,0.085-0.299,0.112c0.018-0.132,0.027-0.28,0.027-0.439c0-0.34-0.04-0.664-0.117-0.964 c-0.078-0.302-0.194-0.568-0.344-0.792c-0.151-0.226-0.337-0.407-0.553-0.54c-0.219-0.134-0.469-0.202-0.743-0.202 c-0.326,0-0.587,0.103-0.775,0.305c-0.182,0.195-0.29,0.45-0.323,0.758c-0.056,0.082-0.107,0.17-0.154,0.261h-0.004 l-0.009,0.025c-0.068,0.135-0.125,0.279-0.17,0.432c-0.197,0.453-0.435,0.865-0.619,1.134c-0.243,0.356-0.46,0.644-0.681,0.905 c-0.193,0.227-0.374,0.39-0.538,0.485c-0.331,0.19-0.653,0.165-0.917,0.066c-0.079-0.03-0.158-0.064-0.233-0.1 c0.434-0.132,0.795-0.386,1.075-0.759c0.318-0.424,0.479-0.958,0.479-1.588c0-0.259-0.028-0.507-0.084-0.737 c-0.056-0.232-0.142-0.437-0.256-0.611c-0.115-0.176-0.259-0.317-0.428-0.42c-0.171-0.104-0.368-0.157-0.582-0.157 c0,0,0,0-0.001,0c-0.183-0.007-0.383,0.028-0.591,0.105c-0.206,0.076-0.413,0.191-0.615,0.342 c-0.201,0.151-0.393,0.332-0.569,0.539c-0.127,0.148-0.241,0.307-0.342,0.475c-0.005-0.058-0.008-0.115-0.011-0.17l-0.021-0.378 c0.081-0.404,0.104-0.684,0.069-0.855c-0.041-0.199-0.125-0.3-0.252-0.3c-0.146,0-0.259,0.132-0.343,0.403 c-0.042,0.134-0.07,0.303-0.086,0.501c-0.003,0.007-0.006,0.012-0.007,0.02c-0.155,0.698-0.658,1.647-0.839,1.954 c-0.2,0.338-0.406,0.614-0.612,0.821c-0.204,0.204-0.408,0.351-0.607,0.438c-0.198,0.086-0.385,0.13-0.556,0.13 c-0.301,0-0.542-0.116-0.736-0.355c-0.185-0.226-0.283-0.561-0.294-0.998c0.07,0.049,0.153,0.09,0.247,0.122 c0.345,0.116,0.687,0.107,1.017-0.048c0.179-0.084,0.342-0.205,0.483-0.359c0.14-0.153,0.255-0.336,0.342-0.544 c0.087-0.21,0.131-0.442,0.131-0.692c0-0.153-0.017-0.299-0.051-0.435c-0.035-0.139-0.093-0.263-0.171-0.368 c-0.079-0.106-0.179-0.191-0.298-0.252c-0.119-0.062-0.267-0.094-0.438-0.094c-0.246,0-0.487,0.071-0.716,0.212 c-0.226,0.139-0.429,0.332-0.601,0.573c-0.172,0.241-0.313,0.533-0.421,0.871c-0.107,0.338-0.162,0.709-0.162,1.104 c0,0.666,0.146,1.172,0.433,1.507c0.29,0.337,0.677,0.508,1.149,0.508c0.25,0,0.514-0.062,0.785-0.183 c0.269-0.12,0.532-0.306,0.782-0.553c0.248-0.246,0.481-0.559,0.691-0.932c0.174-0.31,0.366-0.667,0.507-1.073 c0.017,0.155,0.037,0.314,0.06,0.477c-0.096,0.29-0.125,0.494-0.088,0.62c0.035,0.122,0.109,0.206,0.218,0.247 c0.049,0.328,0.102,0.666,0.158,1.012c0.057,0.358,0.111,0.723,0.158,1.085c0.047,0.364,0.088,0.723,0.12,1.069 c0.033,0.349,0.049,0.687,0.049,1.004c0,0.228-0.009,0.431-0.027,0.601c-0.018,0.168-0.042,0.314-0.07,0.434 c-0.028,0.118-0.062,0.221-0.099,0.303c-0.038,0.082-0.081,0.156-0.129,0.218l-0.028,0.038l0.022,0.041 c0.044,0.081,0.106,0.139,0.183,0.173c0.071,0.031,0.141,0.046,0.209,0.046c0.103,0,0.203-0.036,0.295-0.105 c0.089-0.068,0.169-0.173,0.235-0.314c0.065-0.137,0.114-0.313,0.148-0.523c0.033-0.207,0.05-0.463,0.05-0.762 c-0.008-0.518-0.061-1.094-0.16-1.711c-0.091-0.567-0.19-1.154-0.297-1.747c0.117,0.051,0.255,0.087,0.41,0.108 c0.154,0.116,0.295,0.223,0.422,0.32c0.133,0.102,0.262,0.19,0.385,0.262c0.125,0.073,0.257,0.131,0.393,0.173 c0.138,0.042,0.292,0.064,0.459,0.064c0.524,0,1.022-0.292,1.479-0.868l0.116-0.145c0.213-0.265,0.464-0.578,0.698-0.954 c0.052,0.441,0.187,0.793,0.402,1.05c0.287,0.341,0.661,0.514,1.112,0.514c0.342,0,0.659-0.101,0.944-0.3 c0.274-0.192,0.489-0.465,0.639-0.814c0.181-0.029,0.362-0.083,0.536-0.16c0.204-0.09,0.383-0.196,0.545-0.325 c0.162-0.128,0.286-0.259,0.426-0.428c0,0.008-0.001,0.015-0.001,0.022c0,0.658,0.142,1.161,0.422,1.495 c0.283,0.338,0.658,0.509,1.117,0.509c0.341,0,0.659-0.099,0.944-0.294c0.274-0.188,0.489-0.464,0.639-0.819 c0.182-0.029,0.362-0.085,0.536-0.166c0.188-0.086,0.368-0.205,0.532-0.354c0.165-0.148,0.317-0.337,0.451-0.56 c0.134-0.222,0.244-0.488,0.325-0.789c0.043-0.163,0.034-0.281-0.029-0.363c-0.052-0.067-0.136-0.102-0.25-0.102h-0.051 l-0.017,0.048c-0.101,0.284-0.206,0.526-0.312,0.718c-0.106,0.191-0.218,0.349-0.333,0.468 c-0.114,0.117-0.236,0.209-0.363,0.272c-0.096,0.048-0.197,0.085-0.299,0.112c0.007-0.047,0.012-0.096,0.016-0.146 c0.008-0.093,0.011-0.191,0.011-0.292v-0.101c0-0.036-0.004-0.072-0.011-0.108c-0.001-0.426-0.065-0.824-0.19-1.184 c-0.125-0.358-0.278-0.696-0.454-1.003c-0.175-0.306-0.363-0.599-0.556-0.872c-0.191-0.268-0.353-0.526-0.482-0.767 c-0.127-0.236-0.207-0.47-0.238-0.695c-0.031-0.217,0.02-0.442,0.152-0.673c0.096-0.201,0.251-0.372,0.461-0.508 c0.216-0.14,0.464-0.258,0.738-0.349c0.276-0.092,0.571-0.162,0.879-0.208c0.31-0.046,0.612-0.081,0.897-0.105 c0.285-0.023,0.547-0.039,0.778-0.045c0.239-0.007,0.419-0.017,0.552-0.031c0.093-0.009,0.165-0.045,0.215-0.108 c0.047-0.06,0.07-0.126,0.07-0.196C50.743,32.249,50.713,32.184,50.654,32.129z M32.02,37.448c0.12,0,0.204,0.05,0.265,0.159 c0.067,0.119,0.1,0.262,0.1,0.423c0,0.164-0.026,0.309-0.076,0.43c-0.051,0.123-0.116,0.227-0.194,0.311 c-0.077,0.083-0.162,0.145-0.254,0.184c-0.093,0.04-0.186,0.059-0.278,0.059c-0.135,0-0.254-0.03-0.364-0.092 c-0.1-0.055-0.17-0.129-0.216-0.225c0.042-0.166,0.101-0.326,0.174-0.474c0.078-0.156,0.165-0.293,0.259-0.409 c0.093-0.114,0.192-0.205,0.294-0.272C31.828,37.479,31.926,37.448,32.02,37.448z M46.991,40.413 c-0.189,0.249-0.425,0.37-0.718,0.37c-0.286,0-0.522-0.116-0.721-0.356c-0.199-0.24-0.301-0.597-0.301-1.06 c0-0.142,0.009-0.276,0.027-0.402c0.061,0.132,0.134,0.26,0.217,0.383c0.13,0.191,0.279,0.364,0.444,0.511 c0.164,0.148,0.348,0.274,0.547,0.373C46.649,40.314,46.819,40.375,46.991,40.413z M45.668,37.991 c0.03-0.043,0.061-0.081,0.091-0.114c0.035-0.039,0.07-0.074,0.105-0.106l0.044-0.04l-0.031-0.051 c-0.022-0.038-0.047-0.069-0.072-0.094c0.071-0.059,0.168-0.088,0.294-0.088c0.153,0,0.302,0.045,0.442,0.134 c0.144,0.092,0.273,0.22,0.384,0.382c0.111,0.163,0.202,0.366,0.269,0.603s0.101,0.5,0.101,0.78 c0,0.144-0.009,0.261-0.026,0.351c-0.179-0.031-0.36-0.098-0.538-0.198c-0.2-0.113-0.382-0.254-0.541-0.419 c-0.158-0.164-0.285-0.351-0.38-0.554C45.718,38.383,45.671,38.186,45.668,37.991z M41.041,37.992 c0.065-0.088,0.131-0.162,0.195-0.221l0.04-0.037l-0.023-0.049c-0.02-0.041-0.044-0.075-0.073-0.102 c0.071-0.057,0.167-0.085,0.291-0.085c0.153,0,0.302,0.045,0.442,0.134c0.144,0.092,0.273,0.22,0.383,0.382 c0.111,0.163,0.202,0.366,0.269,0.603s0.101,0.5,0.101,0.78c0,0.136-0.009,0.254-0.027,0.351 c-0.185-0.031-0.367-0.097-0.542-0.198c-0.197-0.113-0.375-0.254-0.53-0.419c-0.155-0.165-0.283-0.351-0.381-0.555 C41.093,38.383,41.044,38.187,41.041,37.992z M41.646,40.783c-0.286,0-0.522-0.116-0.721-0.356 c-0.199-0.24-0.301-0.597-0.301-1.06c0-0.11,0.006-0.22,0.016-0.324c0.003-0.026,0.006-0.053,0.01-0.08 c0.06,0.132,0.131,0.259,0.213,0.379c0.127,0.189,0.276,0.361,0.444,0.512s0.354,0.279,0.552,0.378 c0.163,0.082,0.333,0.143,0.505,0.182c-0.082,0.107-0.178,0.192-0.284,0.254C41.946,40.744,41.8,40.783,41.646,40.783z M37.577,40.004c-0.113,0.161-0.269,0.298-0.463,0.406c-0.187,0.104-0.417,0.162-0.684,0.171 c-0.132-0.102-0.259-0.192-0.378-0.269c-0.134-0.087-0.272-0.135-0.408-0.142H35.64c-0.062,0-0.115,0.005-0.161,0.016 l-0.136-0.843c0.084-0.261,0.198-0.506,0.337-0.726c0.142-0.226,0.299-0.425,0.466-0.591c0.165-0.165,0.336-0.294,0.507-0.384 c0.167-0.088,0.323-0.133,0.464-0.133c0.245,0,0.432,0.11,0.573,0.338c0.145,0.235,0.219,0.561,0.219,0.968 c0,0.214-0.027,0.428-0.08,0.636C37.777,39.655,37.692,39.841,37.577,40.004z"></path> </g> </g> <g> <g> <g> <path fill="#311B14" d="M51.558,39.718c2.423-0.148,4.726-1.345,5.41-3.812c0.366-1.317,0.216-2.782-0.586-3.907 c-1.576-2.211-4.755-2.925-7.251-3.428c-3.564-0.717-7.202-0.997-10.803-1.455c-3.037-0.386-6.419-0.748-9.131-2.285 c-0.962-0.545-2.243-1.572-2.632-2.629c-0.524-1.425-0.058-3.026,1.485-3.604c0.863-0.323,3.481-0.013,3.014,1.453 c-0.184,0.577-0.981,0.479-1.43,0.382c-0.867-0.187-1.587-0.763-1.933-1.58c-0.822-1.944,0.685-3.283,2.169-4.215 c1.494-0.939,3.249-1.82,3.987-3.527c0.72-1.665,0.119-3.837-1.289-4.944C31.283,5.16,29.441,5.074,27.93,5.54 c-0.989,0.305-1.945,0.87-2.517,1.756c-0.687,1.064-0.717,2.441-0.203,3.584c0.466,1.036,1.523,1.807,2.687,1.636 c1.354-0.198,2.131-1.052,2.002-2.341c-0.053-0.528-0.92-0.518-1.083,0.11c-0.129,0.496-0.069,1.062-0.368,1.495 c-0.23,0.334-0.361,0.346-0.735,0.238c-0.941-0.272-1.513-1.251-1.734-2.139C25.56,8.197,26.43,6.402,28.12,5.881 c1.544-0.476,3.348,0.145,4.273,1.464c1.144,1.631,0.909,3.879-0.474,5.262c-1.285,1.286-3.089,1.894-4.417,3.134 c-1.276,1.192-1.423,3.238-0.064,4.446c1.082,0.961,3.173,1.1,4.304,0.146c0.436-0.368,0.492-0.941,0.158-1.402 c-0.396-0.547-1.086-0.763-1.722-0.874c-1.585-0.278-3.473,0.235-4.339,1.821c-0.627,1.147-0.322,2.628,0.38,3.678 c1.463,2.186,4.813,2.872,7.21,3.349c3.553,0.707,7.178,0.98,10.766,1.442c3.097,0.398,6.512,0.791,9.283,2.342 c1.187,0.664,2.195,1.638,2.533,2.99c0.261,1.046,0.1,2.191-0.327,3.168c-0.66,1.512-2.12,2.277-3.721,2.375 c-0.225,0.014-0.639,0.024-0.719,0.249C51.166,39.694,51.448,39.726,51.558,39.718L51.558,39.718z"></path> </g> </g> <g> <g> <path fill="#311B14" d="M24.587,25.712c-3.259,0.668-6.534,1.256-9.792,1.933c-2.462,0.511-4.945,1.063-7.291,1.987 c-1.535,0.605-3.171,1.461-4.064,2.909c-0.971,1.574-0.703,3.942,0.533,5.288c1.019,1.111,2.658,1.401,4.09,1.494 c0.406,0.026,1.08-0.56,0.389-0.605c-1.035-0.068-2.064-0.256-2.956-0.814c-1.039-0.649-1.469-1.824-1.576-2.992 c-0.156-1.699,0.687-2.992,2.082-3.888c1.822-1.171,4.058-1.711,6.136-2.216c2.988-0.727,6.02-1.264,9.038-1.849 c1.186-0.23,2.372-0.465,3.555-0.707C25.361,26.124,25.203,25.586,24.587,25.712L24.587,25.712z"></path> </g> </g> </g> </g> </g> </svg> 